<svg width="863" height="648" viewBox="0 0 863 648" fill="none" xmlns="http://www.w3.org/2000/svg">
<path d="M348.577 302.306C348.205 301.633 347.855 300.947 347.53 300.246C347.302 300.233 347.074 300.221 346.847 300.208C346.325 300.179 345.78 300.158 345.224 300.136C344.921 300.124 343.7 300.05 342.343 299.954C342.34 299.957 342.335 299.961 342.331 299.965C340.662 301.811 341.328 305.998 340.996 308.228C340.873 309.048 340.725 309.865 340.564 310.679C342.901 310 345.255 309.425 347.61 308.973C347.918 306.758 348.24 304.534 348.577 302.306Z" fill="#9C513F"/>
<path d="M341.775 376.794C341.994 371.167 342.288 365.179 342.679 358.91C341.176 359.045 339.666 359.137 338.154 359.191C338.442 361.332 338.79 363.457 339.201 365.558C339.936 369.31 340.813 373.056 341.775 376.794Z" fill="#9C513F"/>
<path d="M389.525 136.017C389.24 134.791 388.976 133.56 388.736 132.324C384.361 131.602 381.081 128.362 380.445 124.028C380.438 123.978 380.434 123.928 380.433 123.879C380.42 123.83 380.41 123.778 380.402 123.724C379.923 120.026 380.096 116.338 380.664 112.659C381.056 110.124 381.117 107.071 384.426 106.548C385.536 106.374 386.618 106.644 387.702 106.861C387.921 105.214 388.204 103.572 388.553 101.937C389.802 96.0911 391.841 90.4211 394.218 84.9154C396.903 78.6931 399.869 72.4116 404.527 67.5229C404.878 69.0991 405.688 70.6496 406.718 72.2382C410.224 77.6433 416.973 82.3056 422.415 85.6254C427.526 88.7407 433.172 92.122 437.451 96.2352C443.172 101.733 446.614 109.932 448.698 117.323C448.972 118.293 449.225 119.268 449.458 120.248C453.71 120.876 457.989 121.319 462.226 122.02C464.228 122.351 466.203 122.766 468.21 123.048C469.517 123.228 470.961 123.423 471.624 124.648C472.275 125.85 472.361 127.544 472.623 128.863C473.051 131.009 473.097 133.202 473.58 135.342C473.905 136.783 471.595 137.392 471.269 135.951C470.823 133.977 470.747 131.973 470.409 129.986C470.287 129.272 470.092 128.573 469.958 127.862C469.846 127.28 469.898 126.302 469.539 125.813C469.016 125.097 466.928 125.214 466.002 125.058C463.926 124.711 461.874 124.256 459.788 123.948C456.522 123.464 453.246 122.993 449.967 122.545C450.374 124.536 450.699 126.542 450.94 128.557C455.697 125.179 462.125 122.454 465.898 127.005C469.307 131.118 464.503 138.276 461.495 141.208C459.952 142.711 455.984 147.569 452.521 149.912C451.93 151.968 451.246 154.024 451.194 156.138C451.147 158.07 451.029 159.999 450.916 161.929C456.835 152.887 465.052 145.81 473.319 138.486C479.868 132.684 486.421 125.33 490.493 117.208C499.471 117.389 509.698 107.364 512.167 100.092C514.621 92.8708 514.087 85.9688 508.083 80.6303C522.841 66.5737 499.285 40.6885 484.022 55.1219C487.244 52.0749 470.595 49.0821 469.297 49.2259C465.237 49.678 461.293 51.3704 458.035 53.8632C445.183 47.875 430.393 46.7075 416.714 53.1613C405.326 48.9504 387.362 58.573 380.235 66.5331C372.993 74.6234 383.136 81.3681 379.681 88.7137C377.068 94.2732 368.218 93.2855 364.156 98.1215C353.113 111.273 373.05 124.961 363.535 138.425C357.069 147.575 349.932 162.097 358.635 172.441C362.524 177.063 375.192 180.317 380.385 177.482C374.369 174.256 372.182 167.345 374.8 161.213C379.238 150.822 388.248 157.648 394.705 153.284C393.997 151.329 393.394 149.336 392.755 147.4C391.518 143.649 390.419 139.856 389.525 136.017Z" fill="#3E201D"/>
<path d="M387.439 109.133C387.188 109.091 386.938 109.047 386.687 108.996C385.684 108.791 384.34 108.487 383.692 109.495C383.191 110.275 383.251 111.38 383.132 112.258C382.967 113.484 382.767 114.698 382.659 115.931C382.437 118.484 382.461 121.029 382.78 123.574C383.301 126.752 385.396 129.062 388.292 129.868C387.143 123.007 386.759 116.038 387.439 109.133Z" fill="#3E201D"/>
<path d="M346.847 300.208C347.074 300.221 347.301 300.233 347.529 300.246C347.854 300.948 348.205 301.633 348.576 302.306C354.492 263.174 365.013 222.412 383.582 193.138C381.678 193.785 379.984 194.544 379.158 194.939C368.276 200.15 360.574 209.262 355.497 219.674C349.901 231.15 346.37 244.493 343.972 256.906C342.655 263.723 341.439 270.616 340.607 277.511C339.723 284.838 338.348 292.209 337.953 299.505C337.947 299.614 340.299 299.809 342.342 299.954C343.699 300.05 344.92 300.124 345.224 300.136C345.779 300.157 346.324 300.179 346.847 300.208Z" fill="#3E201D"/>
<path d="M476.89 196.273L484.315 200.93C481.719 199.236 479.156 197.684 476.89 196.273Z" fill="#3E201D"/>
<path d="M359.934 277.846L435.936 289.939C435.936 289.939 458.315 214.07 476.89 196.274C470.783 192.472 464.725 188.828 458.472 185.272C456.901 184.378 455.375 183.446 453.867 182.535C454.187 183.077 454.536 183.605 454.916 184.121C457.4 186.271 459.816 188.497 462.231 190.71C466.117 194.274 468.766 195.466 463.787 199.494C455.786 205.962 448.162 212.531 439.493 218.204C422.2 229.52 403.211 238.599 383.521 245.41C383.449 244.553 383.394 243.676 383.354 242.78C382.541 224.791 387.629 199.673 402.02 185.901C399.625 186.769 397.274 187.704 394.998 188.733C392.626 189.805 390.178 190.786 387.798 191.878C383.762 199.738 361.82 243.864 359.934 277.846Z" fill="#3E201D"/>
<path d="M462.231 190.711C459.816 188.497 457.4 186.271 454.916 184.121C454.536 183.605 454.188 183.077 453.868 182.535C451.279 178.153 450.581 172.957 450.665 167.665C450.697 165.751 450.804 163.839 450.916 161.928C451.029 159.999 451.146 158.07 451.194 156.138C451.246 154.024 451.93 151.968 452.521 149.912C455.983 147.569 459.952 142.71 461.494 141.207C464.502 138.276 469.307 131.118 465.898 127.005C462.124 122.453 455.696 125.178 450.939 128.557C450.699 126.541 450.374 124.536 449.966 122.545C447.199 122.167 444.43 121.807 441.662 121.472C441.468 124.442 440.368 127.603 439.25 130.291C437.085 135.5 432.646 139.707 426.491 139.662C423.247 139.639 419.376 139.096 416.595 137.404C414.104 135.887 413.081 133.319 412.5 130.667C411.869 127.537 411.808 124.378 412.161 121.234C411.923 121.144 411.716 120.985 411.593 120.761L411.45 120.526C411.426 120.491 411.359 120.418 411.332 120.387L411.049 120.104L410.842 119.934L410.783 119.897C410.623 119.79 410.456 119.691 410.286 119.599C410.109 119.502 409.925 119.42 409.743 119.333C409.723 119.324 409.708 119.316 409.695 119.31C409.683 119.306 409.667 119.3 409.646 119.293L409.348 119.186C408.926 119.043 408.492 118.931 408.053 118.849L407.739 118.798C407.696 118.793 407.615 118.782 407.574 118.779C407.363 118.759 407.151 118.746 406.94 118.74C406.732 118.737 406.526 118.74 406.32 118.752L406.018 118.777C406.006 118.778 405.995 118.779 405.986 118.78C405.975 118.782 405.961 118.785 405.944 118.789C405.757 118.829 405.57 118.862 405.385 118.914L405.122 118.998C405.105 119.003 405.093 119.006 405.082 119.009C405.069 119.017 405.054 119.025 405.034 119.035L404.61 119.277L404.532 119.343L404.358 119.517C404.282 119.597 404.194 119.662 404.1 119.712C403.736 121.195 403.263 122.652 402.656 124.033C403.57 123.769 404.687 124.071 405.354 124.656C405.831 125.077 406.114 125.804 406.114 126.414C406.114 127.127 405.799 127.634 405.354 128.17C404.979 128.622 404.575 129.049 404.173 129.477C403.988 129.673 403.805 129.871 403.628 130.072L403.44 130.289C403.438 130.292 403.436 130.295 403.432 130.299C403.263 130.537 403.098 130.773 402.955 131.026L402.842 131.242C402.837 131.258 402.831 131.274 402.825 131.292C402.78 131.42 402.748 131.548 402.717 131.676C402.707 131.721 402.693 131.78 402.673 131.857L402.673 132.089C402.693 132.131 402.72 132.204 402.751 132.318L402.809 132.41L403.079 132.672L403.263 132.785L403.576 132.949C403.59 132.956 403.608 132.964 403.63 132.973C403.63 132.973 403.631 132.974 403.632 132.974L403.993 133.085C404.241 133.153 404.494 133.205 404.748 133.25C406.177 133.498 406.851 135.09 406.562 136.307C406.421 136.898 405.907 137.489 405.369 137.792C404.736 138.145 404.069 138.163 403.368 138.041C400.328 137.512 397.757 135.379 397.498 132.336C397.437 131.617 397.535 130.878 397.749 130.166C395.577 131.704 392.946 132.593 390.071 132.463C389.616 132.443 389.17 132.396 388.736 132.324C388.975 133.56 389.24 134.791 389.525 136.017C390.419 139.856 391.518 143.649 392.755 147.399C393.393 149.335 393.996 151.329 394.704 153.283C395.256 154.807 395.871 156.306 396.615 157.737C397.821 160.056 398.926 162.133 400.655 164.124C401.786 165.426 402.939 166.864 404.413 167.828C406.475 169.178 409.346 168.679 411.626 168.22C412.857 167.973 414.039 167.665 415.203 167.317C415.128 167.703 415.057 168.09 414.99 168.478C414.098 173.702 410.793 177.109 407.334 181.286C407.089 181.581 406.836 181.871 406.58 182.158C404.967 183.282 403.448 184.536 402.021 185.902C387.63 199.673 382.542 224.791 383.354 242.781C383.394 243.676 383.45 244.553 383.521 245.411C403.212 238.599 422.2 229.521 439.494 218.205C448.163 212.531 455.786 205.963 463.787 199.494C468.766 195.467 466.117 194.274 462.231 190.711Z" fill="#9C513F"/>
<path d="M439.201 119.862C438.824 119.194 437.452 118.958 436.796 118.754C435.391 118.317 433.958 117.953 432.517 117.636C429.506 116.969 426.455 116.435 423.419 115.885C421.872 115.603 420.321 115.341 418.765 115.105C418.121 115.007 416.391 114.418 415.816 114.726C415.822 114.723 415.634 115.525 415.583 115.811C415.522 116.161 415.471 116.511 415.393 116.858C415.064 118.319 414.734 119.754 414.555 121.242C414.2 124.182 414.223 127.149 414.81 130.057C415.443 132.946 416.516 135.173 419.584 136.242C422.251 137.17 425.648 137.712 428.469 137.222C433.75 136.303 436.427 131.57 437.882 127.079C438.307 125.763 438.678 124.431 438.949 123.078C439.114 122.252 439.665 120.677 439.201 119.862Z" fill="#9C513F"/>
<path d="M402.17 111.577C401.36 111.048 400.059 110.917 399.13 110.713C396.297 110.091 393.409 109.709 390.513 109.481C389.474 109.399 388.457 109.301 387.439 109.133C386.758 116.039 387.143 123.008 388.292 129.868C389.377 130.17 390.574 130.262 391.843 130.108C396.76 129.512 399.842 125.463 401.169 121.199C401.974 118.618 402.604 115.868 402.683 113.166C402.7 112.531 402.75 111.956 402.17 111.577Z" fill="#9C513F"/>
<path d="M402.673 132.093V132.089C402.673 132.087 402.672 132.085 402.671 132.084L402.673 132.093Z" fill="#9C513F"/>
<path d="M402.645 131.965L402.645 131.966C402.656 131.926 402.665 131.89 402.674 131.857V131.852C402.664 131.89 402.655 131.928 402.645 131.965Z" fill="#9C513F"/>
<path d="M402.674 131.821V131.852C402.689 131.794 402.703 131.735 402.717 131.676C402.766 131.442 402.684 131.627 402.674 131.821Z" fill="#9C513F"/>
<path d="M402.674 132.093V132.11C402.673 132.136 402.673 132.157 402.672 132.175C402.682 132.198 402.694 132.223 402.709 132.249L402.729 132.282L402.688 132.159L402.674 132.093Z" fill="#9C513F"/>
<path d="M402.753 132.355L402.764 132.366C402.76 132.349 402.756 132.333 402.751 132.318L402.729 132.283L402.753 132.355Z" fill="#9C513F"/>
<path d="M448.698 117.322C446.613 109.932 443.171 101.732 437.451 96.2347C433.171 92.1215 427.526 88.7403 422.415 85.6249C416.972 82.3055 410.224 77.6432 406.717 72.2377C405.687 70.6491 404.877 69.0986 404.526 67.5225C399.869 72.4111 396.903 78.6927 394.217 84.9149C391.84 90.4207 389.801 96.0906 388.553 101.936C388.203 103.571 387.921 105.214 387.702 106.861C388.111 106.943 388.52 107.017 388.932 107.057C390.601 107.219 392.272 107.321 393.935 107.534C395.738 107.763 397.536 108.031 399.311 108.404C400.592 108.672 401.998 108.92 403.178 109.497C405.328 110.55 405.168 112.787 404.949 114.787C404.879 115.424 404.795 116.066 404.695 116.71C405.941 116.354 407.357 116.406 408.583 116.618C409.957 116.857 411.491 117.408 412.597 118.34C412.847 116.93 413.07 115.332 413.558 114.002C413.978 112.854 414.9 112.411 416.128 112.433C417.548 112.459 419.043 112.832 420.44 113.053C422.338 113.354 424.228 113.699 426.115 114.054C429.91 114.767 433.746 115.397 437.434 116.541C439.164 117.079 440.799 117.689 441.424 119.148C443.7 119.422 445.978 119.706 448.241 120.062C448.646 120.126 449.051 120.187 449.457 120.247C449.225 119.268 448.972 118.292 448.698 117.322Z" fill="#9C513F"/>
<path d="M453.063 143.222L452.624 143.174L452.188 143.227L452.057 143.261C451.894 143.316 451.72 143.378 451.576 143.477L451.263 143.714L451.01 144.017L450.789 144.461C450.726 144.614 450.716 144.783 450.696 144.945L450.716 145.296L450.791 145.64L450.822 145.706L450.856 145.904L451.017 146.266L451.256 146.572L451.356 146.671L451.678 146.91L452.05 147.071L452.14 147.098L452.489 147.143L452.54 147.145L452.584 147.141L452.932 147.096L453.296 146.957L453.351 146.919C453.446 146.885 453.539 146.843 453.626 146.802L454.048 146.505L454.372 146.12C454.471 145.98 454.536 145.809 454.596 145.653C454.657 145.496 454.669 145.318 454.688 145.156C454.705 144.991 454.674 144.823 454.645 144.663L454.65 144.625L454.608 144.321L454.393 143.931L454.18 143.725L453.772 143.519L453.738 143.509C453.73 143.505 453.722 143.502 453.715 143.497L453.604 143.417L453.258 143.272L453.172 143.246L453.152 143.244L453.063 143.222Z" fill="#F7EFEC"/>
<path d="M418.068 107.277C421.831 108.137 426.202 109.372 429.409 110.743C431.172 111.497 432.852 112.49 434.509 113.433C436.27 114.438 438.101 115.434 439.399 116.961C440.215 117.921 441.938 117.773 442.786 116.961C443.779 116.01 443.606 114.681 442.786 113.718C441.324 111.998 439.166 110.763 437.207 109.633C435.464 108.629 433.689 107.576 431.827 106.784C427.844 105.086 423.579 103.824 419.342 102.853C416.345 102.169 415.066 106.588 418.068 107.277Z" fill="#3E201D"/>
<path d="M392.079 105.671C392.819 105.562 393.56 105.45 394.301 105.348L394.356 105.341C394.531 105.321 394.706 105.303 394.881 105.284C395.257 105.247 395.634 105.217 396.012 105.195C397.893 105.088 399.777 105.202 401.649 105.375C402.901 105.49 404.099 104.238 404.045 103.081C403.982 101.742 402.989 100.913 401.649 100.79C399.736 100.612 397.812 100.498 395.891 100.617C394.185 100.723 392.493 100.997 390.806 101.25C390.251 101.332 389.645 101.861 389.374 102.303C389.074 102.795 388.946 103.519 389.132 104.071C389.569 105.363 390.748 105.87 392.079 105.671Z" fill="#3E201D"/>
<path d="M424.823 142.7L407.321 142.812C408.452 146.551 411.993 148.308 415.987 148.347C420.207 148.387 423.195 146.272 424.823 142.7Z" fill="#F7EFEC"/>
<path d="M402.674 131.856C402.694 131.78 402.707 131.72 402.717 131.676C402.703 131.735 402.689 131.793 402.674 131.852V131.856Z" fill="#733C2E"/>
<path d="M397.749 130.167C397.536 130.878 397.437 131.618 397.498 132.337C397.757 135.38 400.328 137.513 403.368 138.042C404.069 138.164 404.736 138.145 405.369 137.792C405.907 137.489 406.421 136.898 406.562 136.307C406.851 135.09 406.177 133.498 404.748 133.251C404.494 133.205 404.241 133.154 403.993 133.085L403.632 132.974C403.632 132.974 403.631 132.974 403.63 132.974C403.609 132.965 403.59 132.956 403.576 132.95L403.263 132.785L403.079 132.672L402.809 132.411L402.751 132.318C402.756 132.334 402.76 132.35 402.765 132.367L402.754 132.356L402.729 132.283L402.708 132.249C402.694 132.223 402.681 132.199 402.671 132.176C402.672 132.158 402.673 132.137 402.673 132.111V132.093L402.671 132.085C402.672 132.086 402.673 132.087 402.673 132.089L402.674 131.857C402.665 131.89 402.655 131.927 402.645 131.967L402.644 131.966C402.655 131.929 402.664 131.891 402.674 131.853V131.822C402.683 131.628 402.765 131.442 402.717 131.677C402.748 131.548 402.781 131.42 402.825 131.293C402.832 131.274 402.837 131.258 402.842 131.243L402.955 131.026C403.098 130.774 403.264 130.538 403.433 130.3C403.436 130.296 403.438 130.293 403.441 130.289L403.628 130.072C403.806 129.871 403.988 129.674 404.173 129.478C404.575 129.049 404.979 128.622 405.354 128.17C405.798 127.634 406.115 127.127 406.115 126.414C406.115 125.805 405.832 125.077 405.354 124.657C404.687 124.072 403.57 123.77 402.656 124.034C402.595 124.173 402.533 124.312 402.469 124.449C401.411 126.723 399.78 128.729 397.749 130.167Z" fill="#733C2E"/>
<path d="M402.688 132.159L402.729 132.283L402.751 132.318C402.72 132.204 402.693 132.131 402.673 132.089V132.093L402.688 132.159Z" fill="#733C2E"/>
<path d="M399.346 115.827C399.123 115.119 398.561 114.555 397.809 114.356C397.077 114.163 396.191 114.351 395.667 114.898C395.007 115.586 394.636 116.483 394.494 117.401C394.415 117.906 394.336 118.417 394.346 118.931L394.377 119.368C394.416 119.676 394.443 119.997 394.532 120.298C394.742 121.006 395.325 121.574 396.07 121.77C396.46 121.87 396.85 121.87 397.24 121.77C397.613 121.669 397.936 121.489 398.211 121.227L398.303 121.14C398.451 120.981 398.595 120.802 398.717 120.621C398.872 120.392 398.978 120.095 399.079 119.854C399.164 119.65 399.225 119.436 399.272 119.219C399.407 118.941 399.477 118.644 399.478 118.331C399.505 117.982 399.536 117.633 399.536 117.282C399.536 117.124 399.53 116.965 399.511 116.808C399.474 116.483 399.445 116.144 399.346 115.827Z" fill="#3E201D"/>
<path d="M425.729 122.825C425.703 122.404 425.651 121.981 425.554 121.571L425.472 121.297C425.378 121.054 425.285 120.794 425.143 120.57C425.026 120.386 424.875 120.201 424.725 120.044L424.66 119.982C424.505 119.841 424.313 119.704 424.129 119.597C423.953 119.492 423.744 119.405 423.537 119.358C423.353 119.316 423.066 119.274 422.876 119.271L422.838 119.269L422.186 119.353L422.152 119.359L421.547 119.604L421.517 119.622L421.003 120L420.93 120.07C420.466 120.56 420.252 121.026 420.005 121.641C419.853 122.016 419.744 122.406 419.648 122.797C419.516 123.338 419.427 123.896 419.378 124.448C419.338 124.893 419.395 125.322 419.475 125.762L419.543 126.009C419.705 126.429 419.798 126.616 420.059 126.939C420.299 127.236 420.454 127.423 420.84 127.622L420.873 127.639L421.467 127.878L421.855 127.935L422.241 127.977C422.418 127.977 422.73 127.929 422.903 127.893L422.948 127.885L423.028 127.862C423.242 127.788 423.471 127.703 423.672 127.596L423.754 127.546C423.778 127.53 423.801 127.514 423.825 127.498C423.977 127.409 424.119 127.304 424.251 127.183C424.271 127.166 424.293 127.149 424.313 127.132L424.48 126.968C424.485 126.962 424.49 126.957 424.495 126.951C424.56 126.882 424.621 126.811 424.68 126.736C424.856 126.528 425.023 126.305 425.142 126.066C425.318 125.713 425.497 125.333 425.588 124.946C425.66 124.643 425.693 124.33 425.729 124.023L425.749 123.664L425.732 123.439C425.743 123.234 425.742 123.028 425.729 122.825Z" fill="#3E201D"/>
<path d="M436.39 417.28H444.119C443.373 412.686 442.74 408.132 442.212 403.621C440.268 408.176 438.325 412.728 436.39 417.28Z" fill="#F7EFEC"/>
<path d="M348.577 302.306C348.24 304.534 347.918 306.758 347.61 308.973C347.93 308.912 348.25 308.852 348.57 308.795C351.147 308.339 369.391 306.604 368.085 312.003C367.731 313.456 364.585 314.698 363.405 315.289C358.542 317.715 349.819 319.186 346.945 324.026C349.393 325.708 355.399 324.705 358.279 324.255C362.871 323.537 367.06 321.699 370.594 318.883C373.872 316.267 376.283 312.521 379.766 310.182C382.766 308.166 386.269 306.124 390.083 306.241C396.687 306.444 392.041 313.834 391.324 317.159C400.487 318.679 390.327 329.247 387.104 332.677C394.235 335.25 376.646 346.608 374.823 347.599C371.1 349.623 367.114 351.229 363.377 353.206C356.971 356.599 349.9 358.26 342.68 358.91C342.289 365.18 341.994 371.168 341.775 376.795C341.067 394.994 341.145 409.409 341.288 417.28H410.202C416.695 384.814 424.204 351.75 434.048 320.228C435.692 314.962 437.262 309.692 438.825 304.424C438.6 304.275 438.395 304.112 438.215 303.933C437.972 303.689 437.829 303.387 437.756 303.049C437.485 301.809 438.158 300.068 438.404 298.903C441.204 285.667 447.284 272.723 452.163 260.103C455.918 250.398 460.486 240.699 466.158 231.872C468.385 228.406 470.73 224.999 473.255 221.721C479.606 208.374 484.325 200.961 484.335 200.944L484.336 200.943L484.315 200.931L476.89 196.274C458.316 214.071 435.937 289.94 435.937 289.94L359.934 277.847C361.82 243.865 383.762 199.738 387.799 191.879C388.209 191.079 388.435 190.654 388.435 190.654L383.909 192.624C383.8 192.795 383.691 192.967 383.583 193.138C365.014 222.412 354.492 263.175 348.577 302.306Z" fill="#F7EFEC"/>
<path d="M465.347 348.103C469.619 337.334 474.277 326.685 478.913 316.046C478.609 315.986 478.303 315.924 477.997 315.858C472.743 314.718 467.783 313.251 462.699 311.497C457.668 309.759 452.649 307.928 447.473 306.612C445.13 306.016 441.011 305.872 438.825 304.423C437.261 309.69 435.691 314.961 434.047 320.227C424.203 351.749 416.694 384.813 410.201 417.279H436.39C438.324 412.728 440.268 408.176 442.212 403.62C450.091 385.161 457.983 366.667 465.347 348.103Z" fill="#9C513F"/>
<path d="M466.157 231.871C460.486 240.698 455.918 250.397 452.163 260.102C447.283 272.722 441.204 285.666 438.404 298.902C438.158 300.067 437.484 301.808 437.755 303.049C437.828 303.387 437.972 303.688 438.215 303.932C438.395 304.111 438.6 304.274 438.825 304.423C441.011 305.872 445.13 306.016 447.473 306.612C452.648 307.928 457.668 309.76 462.699 311.497C467.783 313.251 472.743 314.718 477.997 315.858C478.303 315.924 478.609 315.987 478.913 316.046C474.277 326.685 469.619 337.334 465.347 348.103C457.983 366.668 450.091 385.161 442.212 403.621C442.739 408.133 443.372 412.686 444.119 417.28H486.779C486.505 415.635 486.224 413.933 486.059 412.208C484.489 395.732 482.743 379.287 480.419 362.893C478.952 352.546 477.288 342.385 478.985 332.439C479.085 331.857 479.195 331.276 479.317 330.695C480.307 326.026 481.385 321.355 482.506 316.683C484.671 317.061 486.757 317.482 488.712 318.311C493.885 303.645 497.119 288.1 501.498 273.166C505.423 259.784 509.244 243.929 508.356 229.98C507.735 220.217 502.465 210.559 492.576 206.959C490.01 204.786 487.152 202.781 484.335 200.943C484.324 200.96 479.606 208.373 473.255 221.72C470.729 224.998 468.385 228.405 466.157 231.871Z" fill="#3E201D"/>
<path d="M466.002 125.058C466.929 125.213 469.017 125.096 469.54 125.813C469.898 126.302 469.846 127.279 469.958 127.862C470.092 128.573 470.287 129.272 470.409 129.986C470.747 131.973 470.824 133.977 471.27 135.951C471.595 137.392 473.905 136.783 473.58 135.342C473.098 133.202 473.052 131.009 472.623 128.863C472.361 127.544 472.275 125.85 471.625 124.648C470.962 123.423 469.517 123.228 468.211 123.048C466.203 122.766 464.228 122.351 462.226 122.02C457.989 121.319 453.71 120.876 449.459 120.248C449.053 120.188 448.647 120.127 448.242 120.063C445.979 119.707 443.701 119.423 441.425 119.149C440.8 117.69 439.166 117.081 437.436 116.542C433.747 115.397 429.912 114.768 426.116 114.055C424.229 113.7 422.339 113.355 420.441 113.054C419.044 112.833 417.55 112.459 416.13 112.434C414.901 112.412 413.979 112.854 413.559 114.003C413.071 115.333 412.849 116.931 412.598 118.34C411.492 117.409 409.958 116.858 408.584 116.619C407.358 116.407 405.942 116.355 404.696 116.71C404.796 116.067 404.88 115.425 404.95 114.788C405.169 112.787 405.329 110.551 403.18 109.498C401.999 108.92 400.594 108.673 399.313 108.405C397.537 108.032 395.739 107.764 393.937 107.535C392.273 107.322 390.603 107.22 388.933 107.058C388.522 107.018 388.112 106.943 387.703 106.861C386.618 106.644 385.537 106.374 384.427 106.549C381.117 107.071 381.057 110.125 380.665 112.659C380.096 116.338 379.924 120.026 380.403 123.724C380.41 123.778 380.421 123.83 380.434 123.88C380.435 123.928 380.439 123.978 380.446 124.029C381.082 128.362 384.362 131.603 388.737 132.325C389.171 132.396 389.617 132.443 390.072 132.464C392.947 132.593 395.578 131.705 397.75 130.167C399.781 128.729 401.412 126.723 402.47 124.449C402.533 124.312 402.595 124.173 402.657 124.034C403.264 122.652 403.736 121.196 404.101 119.712C404.195 119.662 404.283 119.598 404.359 119.517L404.533 119.343L404.612 119.277L405.035 119.035C405.055 119.026 405.07 119.017 405.083 119.009C405.094 119.007 405.106 119.004 405.123 118.998L405.386 118.915C405.571 118.863 405.758 118.829 405.945 118.789C405.962 118.786 405.976 118.783 405.987 118.78C405.996 118.779 406.006 118.778 406.019 118.778L406.321 118.753C406.528 118.741 406.734 118.738 406.941 118.741C407.152 118.746 407.364 118.759 407.575 118.779C407.616 118.783 407.697 118.793 407.74 118.798L408.054 118.85C408.493 118.932 408.927 119.044 409.349 119.186L409.647 119.293C409.668 119.301 409.684 119.307 409.696 119.311C409.709 119.317 409.724 119.324 409.744 119.334C409.926 119.421 410.11 119.502 410.288 119.599C410.457 119.692 410.624 119.79 410.784 119.898L410.843 119.934L411.05 120.105L411.333 120.387C411.361 120.418 411.427 120.492 411.451 120.527L411.594 120.761C411.717 120.985 411.924 121.144 412.162 121.235C411.809 124.379 411.87 127.538 412.501 130.668C413.083 133.319 414.105 135.887 416.596 137.404C419.377 139.097 423.248 139.639 426.492 139.662C432.647 139.708 437.086 135.501 439.251 130.291C440.369 127.603 441.47 124.443 441.663 121.473C444.431 121.808 447.2 122.167 449.967 122.545C453.247 122.994 456.523 123.465 459.789 123.948C461.874 124.256 463.926 124.711 466.002 125.058ZM391.844 130.108C390.574 130.261 389.377 130.17 388.292 129.868C385.396 129.062 383.301 126.752 382.78 123.573C382.461 121.029 382.437 118.484 382.659 115.931C382.767 114.697 382.967 113.484 383.132 112.258C383.251 111.379 383.191 110.275 383.692 109.494C384.34 108.487 385.684 108.791 386.687 108.995C386.938 109.047 387.189 109.091 387.439 109.132C388.457 109.301 389.475 109.399 390.514 109.481C393.409 109.708 396.297 110.09 399.13 110.713C400.06 110.917 401.36 111.047 402.171 111.576C402.751 111.955 402.701 112.531 402.683 113.165C402.605 115.867 401.974 118.617 401.17 121.199C399.842 125.463 396.761 129.512 391.844 130.108ZM438.95 123.077C438.679 124.43 438.308 125.762 437.883 127.078C436.428 131.57 433.751 136.302 428.47 137.221C425.649 137.711 422.252 137.169 419.585 136.242C416.517 135.172 415.444 132.946 414.811 130.056C414.224 127.148 414.201 124.181 414.556 121.241C414.735 119.753 415.065 118.318 415.394 116.857C415.472 116.51 415.523 116.16 415.584 115.811C415.635 115.524 415.823 114.722 415.817 114.726C416.392 114.418 418.122 115.007 418.766 115.104C420.322 115.34 421.873 115.603 423.42 115.884C426.456 116.435 429.507 116.969 432.518 117.635C433.959 117.953 435.391 118.316 436.797 118.753C437.453 118.957 438.824 119.193 439.202 119.861C439.665 120.677 439.114 122.252 438.95 123.077Z" fill="#F6A872"/>
<path d="M547.552 301.029C541.645 303.347 536.339 307.193 535.762 313.824C535.593 315.746 537.036 317.574 537.008 319.206C536.984 320.682 535.538 322.201 534.918 323.54C533.848 325.858 532.947 328.048 533.317 330.64C533.633 332.863 535.109 333.203 535.847 334.852C537.591 338.747 534.876 342.664 537.605 346.466C539.722 349.415 542.82 351.778 546.337 353.014C546.325 339.131 546.655 325.232 547.149 311.359C547.271 307.921 547.389 304.474 547.552 301.029Z" fill="#F6A872"/>
<path d="M605.446 296.417C604.732 302.545 605.913 308.637 607.097 314.691C608.015 306.835 608.995 299.313 610.025 292.114C609.041 291.638 608.063 291.155 607.089 290.661C606.281 292.45 605.687 294.344 605.446 296.417Z" fill="#F6A872"/>
<path d="M595.225 280.494C595.545 281.092 595.886 281.857 596.097 282.584C597.854 282.417 599.615 282.269 601.383 282.141C604.727 281.901 608.125 281.85 611.552 281.889C623.99 202.182 642.327 165.07 648.295 154.623C647.74 154.886 647.206 155.15 646.714 155.394C645.838 155.827 645.094 156.197 644.617 156.383C634.877 160.161 626.156 164.155 618.396 171.01C613.076 175.711 607.927 180.524 604.26 186.468C593.854 203.339 588.653 223.191 579.784 240.857C575.546 249.299 571.662 257.918 568.145 266.667C568.738 267.13 569.313 267.614 569.922 268.06C572.822 270.183 575.813 272.238 578.862 274.234C585.148 274.098 592.336 275.091 595.225 280.494Z" fill="#3E201D"/>
<path d="M610.024 292.114C610.434 289.252 610.851 286.44 611.275 283.679C609.714 285.937 608.199 288.2 607.088 290.662C608.062 291.155 609.041 291.639 610.024 292.114Z" fill="#3E201D"/>
<path d="M737.805 373.154C740.132 392.638 742.455 408.326 743.858 417.279H781.52C782.398 412.871 780.905 403.719 780.905 401.063C780.905 387.771 780.762 374.459 780.743 361.148C774.87 363.013 768.959 364.751 763.167 366.579C756.957 368.539 747.363 370.973 737.805 373.154Z" fill="#3E201D"/>
<path d="M731.84 224.444C732.24 229.632 732.907 234.795 733.73 239.821C736.023 253.822 740.078 267.642 745.96 280.655C747.273 283.563 742.8 286.089 741.478 283.163C737.952 275.364 735.007 267.348 732.711 259.138C731.891 256.206 731.16 253.258 730.511 250.297C729.875 278.371 731.51 308.414 733.895 335.551C744.278 330.199 754.663 324.861 764.864 319.176C766.72 318.141 768.651 317.054 770.635 315.964C767.536 308.893 764.89 301.655 762.27 294.399C761.009 290.906 758.713 285.093 756.621 278.633C769.455 275.648 782.131 271.989 794.602 268.035C798.159 266.907 804.843 266.331 809.308 264.286C811.251 263.396 812.775 262.229 813.436 260.616C815.603 255.334 810.012 246.079 808.352 241.13C805.938 233.93 803.814 226.543 801.177 219.461C796.997 208.231 791.54 197.24 786.96 186.267C784.379 180.087 779.827 173.827 773.649 170.466C769.387 165.609 763.748 162.229 758.051 158.94C756.086 157.806 754.094 156.684 752.075 155.581L752.099 155.597C740.371 169.385 734.35 194.677 731.84 224.444Z" fill="#3E201D"/>
<path d="M630.859 253.81L714.984 264.113C718.206 195.979 739.153 157.564 743.083 150.912C736.555 147.711 729.806 144.84 722.907 142.582L723.619 146.13C714.439 157.194 655.37 202.468 656.174 199.861C656.79 197.868 664.268 162.254 667.757 145.591C664.271 147.353 660.83 149.259 657.366 151.17C644.606 178.459 630.859 253.81 630.859 253.81Z" fill="#3E201D"/>
<path d="M656.275 80.792C656.345 80.8505 656.402 80.8988 656.451 80.9394C656.453 80.9401 656.454 80.9412 656.456 80.942L656.275 80.792Z" fill="#F6A872"/>
<path d="M656.48 80.9561C656.472 80.951 656.464 80.947 656.456 80.9419L656.532 81.0048C656.807 81.2276 656.632 81.0531 656.48 80.9561Z" fill="#F6A872"/>
<path d="M655.214 80.5273L655.058 80.5559C655.126 80.5475 655.186 80.5372 655.214 80.5273Z" fill="#F6A872"/>
<path d="M653.253 81.3274C653.278 81.3129 653.302 81.2994 653.324 81.2867C653.328 81.2834 653.332 81.2801 653.337 81.2769C653.309 81.2936 653.282 81.3111 653.253 81.3274Z" fill="#F6A872"/>
<path d="M653.585 81.1211C653.526 81.1526 653.418 81.2166 653.339 81.2769C653.422 81.2268 653.504 81.1745 653.585 81.1211Z" fill="#F6A872"/>
<path d="M714.472 100.507C714.499 100.46 714.527 100.413 714.555 100.366C716.751 96.6388 719.068 92.8724 721.325 89.0463C720.81 89.4344 720.309 89.8276 719.814 90.2194C720.105 89.8825 720.372 89.5723 720.608 89.306C723.383 86.1705 727.621 78.6911 723.905 74.8325C718.782 69.5129 710.428 75.7304 706.177 80.1535C705.228 76.2952 704.985 72.2848 706.038 68.4112C707.264 63.9048 709.489 59.9273 709.716 55.1783C709.901 51.3281 709.35 46.701 706.171 43.9643C704.635 42.6416 702.65 41.9689 700.602 41.8533C698.019 41.7096 695.721 43.3099 693.128 42.4009C690.777 41.5754 689.221 39.7508 689.17 37.3506C687.098 44.6208 697.084 51.3468 702.397 45.1011C701.096 49.1488 701.44 53.0711 697.754 56.0021C695.211 58.0245 690.907 58.977 687.696 59.5227C686.164 59.7839 684.543 59.8757 682.993 59.9463C678.997 60.1288 675.032 59.6485 671.038 59.533C664.602 59.3471 656.157 56.5215 652.279 51.2147C650.872 49.29 650.177 47.013 649.415 44.7774C644.408 57.7311 642.023 72.4435 643.014 85.83C644.338 103.709 651.053 123.684 671.319 127.391L669.527 137.125C669.527 137.125 668.831 140.46 667.756 145.592C664.268 162.255 656.789 197.869 656.174 199.862C655.369 202.469 714.438 157.195 723.618 146.131L722.907 142.583L714.472 100.507Z" fill="#F6A872"/>
<path d="M671.038 59.5322C675.033 59.6477 678.997 60.128 682.994 59.9455C684.543 59.8753 686.164 59.7831 687.696 59.5219C690.907 58.9762 695.211 58.0237 697.754 56.0013C701.441 53.0703 701.096 49.148 702.397 45.1003C697.084 51.346 687.098 44.6196 689.17 37.3498C689.221 39.7504 690.778 41.5749 693.128 42.4001C695.722 43.3091 698.02 41.7088 700.603 41.8525C702.651 41.9681 704.635 42.6412 706.171 43.9634C709.35 46.7006 709.901 51.3273 709.716 55.1775C709.489 59.9268 707.264 63.904 706.038 68.4104C704.985 72.284 705.228 76.2948 706.178 80.1526C710.428 75.73 718.783 69.5121 723.905 74.8316C727.621 78.6903 723.384 86.1697 720.608 89.3052C720.372 89.5719 720.106 89.882 719.814 90.2186C720.309 89.8268 720.811 89.434 721.325 89.0455C721.88 88.627 722.451 88.2141 723.05 87.815C727.392 84.9206 731.633 81.5642 734.19 77.0329C736.5 72.9347 734.932 68.5911 738.213 64.814C741.579 60.9386 745.212 57.2058 745.191 51.7619C745.177 47.6856 742.744 43.1221 738.361 42.1481C739.215 39.9903 741.109 38.5843 740.733 35.9309C740.157 31.8649 736.339 31.6941 733.391 29.7386C729.956 27.4602 729.762 23.7054 728.734 20.1314C728.035 17.7041 727.127 15.0876 725.848 12.6973C724.817 10.7722 723.547 8.99449 721.952 7.58001C718.9 4.8747 713.255 2.98984 709.164 2.59809C704.174 2.12111 699.673 4.4932 695.129 6.00314C686.36 8.91914 679.674 2.7572 671.732 0.584467C662.738 -1.87797 652.902 3.85564 647.199 10.0227C642.763 14.8221 639.066 21.5616 639.785 28.1574C640.333 33.1978 643.092 35.2114 646.301 38.7452C647.874 40.4772 648.676 42.6071 649.415 44.7758C650.177 47.0115 650.872 49.2885 652.279 51.2132C656.157 56.5207 664.602 59.3463 671.038 59.5322Z" fill="#8D5241"/>
<path d="M676.985 72.5374C677.985 73.416 679.055 73.795 680.366 73.9596C682.576 74.3414 684.682 75.1187 686.758 75.9223C688.508 76.6009 690.288 77.215 692.04 77.895C692.562 78.1207 693.077 78.3606 693.573 78.6346C693.808 78.7637 694.03 78.9042 694.254 79.0446C694.292 79.0798 694.336 79.1204 694.39 79.1686C696.375 80.943 699.792 81.191 701.732 79.1686C703.582 77.2402 703.851 74.036 701.732 72.1413C698.9 69.6082 695.285 68.5255 691.753 67.2047C690.165 66.6103 688.603 65.9578 686.997 65.4069C684.922 64.6954 682.852 64.2752 680.656 64.0542C679.414 63.9302 677.833 64.6987 676.985 65.5108C676.085 66.3729 675.406 67.7859 675.464 69.0245C675.525 70.3076 675.966 71.642 676.985 72.5374Z" fill="#8D5241"/>
<path d="M651.347 70.75C652.539 70.5829 653.722 70.3568 654.913 70.1758C655.737 70.0949 656.562 70.062 657.388 70.1114C657.866 70.2079 658.334 70.3356 658.797 70.4991C660.002 70.9209 661.728 70.5979 662.798 69.9969C663.876 69.3941 664.902 68.2122 665.184 67.0271C665.486 65.7564 665.421 64.3288 664.661 63.1985C663.893 62.0602 662.887 61.382 661.558 60.9153C657.275 59.4138 652.907 60.5638 648.587 61.1662C647.391 61.3338 646.063 62.5021 645.484 63.4498C644.832 64.516 644.556 66.0845 644.96 67.2799C645.367 68.4818 646.145 69.6421 647.345 70.2496C647.759 70.4168 648.172 70.5829 648.586 70.75C649.507 70.986 650.427 70.986 651.347 70.75Z" fill="#8D5241"/>
<path d="M653.325 81.2866C653.654 81.0982 653.669 81.077 653.585 81.1209C653.504 81.1743 653.422 81.2266 653.338 81.2767C653.334 81.28 653.33 81.2833 653.325 81.2866Z" fill="#E68A71"/>
<path d="M656.452 80.9395C656.481 80.9638 656.508 80.986 656.531 81.0042L656.456 80.9416C656.454 80.9413 656.453 80.9402 656.452 80.9395Z" fill="#E68A71"/>
<path d="M675.449 88.8203C676.696 89.4513 678.265 89.1268 678.999 87.9296C679.204 87.5964 679.426 87.2767 679.652 86.957C679.663 86.9413 679.672 86.9277 679.681 86.9153L680.055 86.495C680.297 86.2408 680.55 85.9979 680.817 85.7704C680.885 85.713 681.079 85.5736 681.12 85.5411L681.288 85.4306C681.496 85.3 681.958 84.9335 682.203 84.9401C681.903 85.0557 681.842 85.0791 682.023 85.0122L682.292 84.9167C682.474 84.8563 682.658 84.8048 682.845 84.7609L683.272 84.6749C683.286 84.6753 683.301 84.6753 683.319 84.6753C683.521 84.6753 684.017 84.5963 684.334 84.6347C684.315 84.6471 684.364 84.683 684.557 84.7239C684.751 84.7656 684.94 84.8161 685.127 84.8746C685.23 84.9061 685.301 84.9306 685.337 84.9427C685.459 84.9983 685.58 85.056 685.699 85.119C685.875 85.2111 686.048 85.3114 686.218 85.4185C686.248 85.4376 686.371 85.5246 686.457 85.5842C686.555 85.6673 686.704 85.7909 686.732 85.815L687.096 86.1618L687.33 86.4204C687.345 86.4504 687.529 86.6852 687.563 86.7375C687.695 86.9354 687.814 87.1406 687.923 87.3502C687.926 87.3725 688.033 87.6264 688.062 87.7153C688.119 87.8992 688.161 88.0836 688.207 88.2709C688.21 88.2852 688.213 88.2972 688.216 88.3089C688.216 88.3265 688.215 88.3455 688.214 88.3678C688.207 88.5602 688.219 88.7512 688.212 88.9436C688.156 90.2443 689.445 91.4865 690.807 91.4279C692.261 91.3661 693.343 90.3364 693.403 88.9436C693.585 84.6562 689.846 80.5215 685.457 79.847C680.788 79.1304 676.825 81.6631 674.517 85.4215C673.83 86.5437 674.211 88.1959 675.449 88.8203Z" fill="#E68A71"/>
<path d="M676.755 115.988C678.608 116.922 680.777 117.314 682.862 117.141C685.107 116.957 687.127 116.262 688.878 114.89C690.455 113.651 691.459 111.925 692.143 110.114C692.605 108.89 691.623 107.34 690.329 107.057C688.869 106.739 687.631 107.482 687.137 108.793C687.108 108.87 686.933 109.258 686.999 109.132L686.898 109.337C686.742 109.635 686.569 109.927 686.378 110.205C686.359 110.232 686.334 110.276 686.309 110.322L686.055 110.608C685.833 110.844 685.591 111.055 685.345 111.268C685.345 111.268 685.344 111.268 685.343 111.269C685.33 111.277 685.315 111.285 685.299 111.294L684.918 111.525L684.519 111.735L684.271 111.848C684.096 111.926 684.161 111.899 684.465 111.77C684.297 111.939 683.687 112.014 683.463 112.066C683.304 112.101 683.143 112.13 682.98 112.162C682.965 112.164 682.951 112.167 682.938 112.17C682.915 112.17 682.891 112.171 682.862 112.173C682.515 112.19 682.174 112.213 681.828 112.208C681.623 112.205 681.421 112.198 681.22 112.183L680.92 112.156C680.721 112.136 680.787 112.144 681.118 112.183C680.854 112.222 680.418 112.051 680.165 111.982C679.979 111.932 679.801 111.869 679.617 111.813C679.606 111.81 679.596 111.807 679.587 111.804C679.573 111.796 679.558 111.788 679.542 111.779C679.269 111.63 679 111.488 678.734 111.329C678.72 111.321 678.708 111.314 678.696 111.307C678.687 111.299 678.678 111.29 678.667 111.281L678.328 110.971L678.155 110.789C678.312 110.954 678.032 110.653 677.957 110.543C677.851 110.382 677.751 110.218 677.66 110.049C677.595 109.928 677.369 109.383 677.588 109.918C677.097 108.711 675.823 107.74 674.394 108.182C673.169 108.562 672.054 109.942 672.581 111.239C673.395 113.241 674.73 114.969 676.755 115.988Z" fill="#E68A71"/>
<path d="M671.375 105.621C670.964 104.19 669.575 103.698 668.181 103.885C666.599 104.098 662.889 104.596 661.732 103.144C661.231 102.514 661.377 101.471 661.485 100.738C661.693 99.3102 662.02 97.884 662.276 96.4611C662.834 93.3373 663.488 90.1953 664.273 87.1183C664.944 84.48 665.987 81.902 666.05 79.155C666.116 76.2554 661.858 75.9855 661.006 78.3407C660.453 77.6626 659.776 77.0759 659.018 76.6153C656.826 75.2846 654.158 75.3834 651.859 76.3611C650.621 76.8867 649.507 77.7723 648.652 78.7716C648.203 79.2958 647.893 79.8247 647.893 80.5277C647.893 81.1367 648.175 81.865 648.652 82.2853C649.603 83.1207 651.405 83.3585 652.323 82.2853C652.531 82.041 652.75 81.8069 652.986 81.5874L653.307 81.301C653.313 81.2962 653.318 81.2918 653.325 81.2867C653.302 81.2999 653.279 81.3131 653.253 81.3277C653.282 81.3112 653.31 81.2937 653.338 81.2765C653.418 81.2161 653.526 81.1521 653.585 81.1207C653.699 81.0468 653.813 80.9729 653.933 80.9089L654.202 80.7746C654.403 80.7088 654.604 80.6462 654.811 80.6009L654.959 80.5742C655.142 80.5632 655.326 80.5625 655.509 80.5716L655.735 80.621L656.005 80.6982C656.156 80.775 656.308 80.8503 656.452 80.9392C656.402 80.8986 656.345 80.8503 656.275 80.7918L656.456 80.9418C656.464 80.9469 656.472 80.9509 656.48 80.9561C656.632 81.053 656.808 81.2275 656.532 81.0047L656.578 81.0431C656.755 81.2022 656.905 81.3796 657.066 81.5519C656.441 80.8789 657.005 81.5018 657.143 81.7344L657.308 82.0428C657.389 82.2674 657.467 82.4905 657.526 82.722C657.568 82.883 657.603 83.0436 657.633 83.206C657.635 83.2177 657.637 83.2279 657.639 83.2382C657.717 83.8925 657.885 84.4588 658.394 84.9453C658.647 85.1881 658.993 85.3974 659.362 85.5283C659.12 86.445 658.896 87.3653 658.698 88.2969C657.902 92.0348 657.103 95.7661 656.468 99.5344C655.947 102.618 656.346 105.82 659.342 107.633C662.318 109.435 666.241 109.125 669.562 108.678C670.95 108.491 671.711 106.794 671.375 105.621ZM655.058 80.5563L655.213 80.5277C655.185 80.5376 655.125 80.5478 655.058 80.5563Z" fill="#E68A71"/>
<path d="M756.621 278.633C758.713 285.093 761.01 290.906 762.271 294.399C764.891 301.655 767.536 308.893 770.635 315.964C768.652 317.054 766.72 318.141 764.865 319.176C754.664 324.861 744.279 330.198 733.895 335.551C725.139 340.064 716.386 344.587 707.746 349.338C707.356 349.552 706.515 349.928 705.383 350.413C701.703 348.915 697.386 348.525 693.553 348.417C685.04 348.18 676.002 349.047 667.859 351.484C665.638 352.149 650.559 358.041 653.929 361.761C654.835 362.762 657.845 362.486 659.029 362.479C663.9 362.451 671.39 360.139 675.746 362.799C674.554 365.09 669.401 366.693 666.944 367.484C663.028 368.745 658.941 368.968 654.941 368.161C651.234 367.411 647.713 365.427 643.964 364.975C640.733 364.585 637.097 364.374 634.152 365.983C629.054 368.768 635.91 372.722 637.918 375.049C631.38 379.886 643.944 384.148 647.965 385.559C643.481 390.415 662.222 392.34 664.084 392.394C667.885 392.501 671.713 392.178 675.505 392.245C687.016 392.451 697.81 387.571 707.377 381.878C708.543 381.184 710.585 379.819 712.834 378.179C718.908 377.224 728.339 375.313 737.805 373.154C747.363 370.973 756.957 368.539 763.168 366.579C768.959 364.751 774.87 363.013 780.743 361.148C791.461 357.744 802.052 353.917 811.558 348.342C819.811 343.502 822.425 335.697 821.022 327.412C820.71 324.151 819.845 320.856 819.512 318.863C818.683 313.893 817.972 308.913 817.111 303.946C815.382 293.957 813.814 283.689 811.158 273.897C810.358 270.947 809.979 267.568 809.309 264.286C804.844 266.33 798.159 266.907 794.603 268.035C782.131 271.989 769.456 275.648 756.621 278.633Z" fill="#F6A872"/>
<path d="M741.478 283.163C742.8 286.089 747.274 283.563 745.96 280.655C740.078 267.641 736.023 253.822 733.73 239.821C732.907 234.795 732.24 229.632 731.84 224.443C731.139 232.762 730.712 241.431 730.511 250.296C731.16 253.257 731.89 256.205 732.71 259.137C735.007 267.349 737.952 275.364 741.478 283.163Z" fill="#261312"/>
<path d="M743.857 417.28C742.454 408.326 740.131 392.638 737.805 373.154C728.339 375.313 718.908 377.223 712.834 378.179C710.584 379.819 708.542 381.184 707.376 381.878C697.81 387.571 687.016 392.451 675.504 392.245C671.713 392.178 667.884 392.501 664.084 392.394C662.221 392.34 643.48 390.415 647.964 385.559C643.944 384.148 631.38 379.886 637.917 375.05C635.909 372.723 629.054 368.769 634.152 365.983C637.097 364.374 640.733 364.585 643.963 364.975C647.713 365.427 651.233 367.411 654.941 368.161C658.941 368.968 663.028 368.745 666.944 367.485C669.401 366.693 674.553 365.091 675.746 362.799C671.389 360.139 663.899 362.451 659.028 362.479C657.844 362.486 654.834 362.762 653.929 361.761C650.558 358.041 665.637 352.149 667.858 351.484C676.001 349.047 685.039 348.18 693.553 348.418C697.386 348.525 701.702 348.915 705.382 350.414C706.514 349.928 707.355 349.553 707.745 349.338C716.385 344.587 725.139 340.064 733.894 335.551C731.51 308.414 729.875 278.371 730.511 250.297C730.712 241.432 731.139 232.763 731.84 224.444C734.35 194.677 740.371 169.386 752.099 155.597L752.075 155.581L743.718 149.869C743.718 149.869 743.493 150.217 743.083 150.912C739.152 157.564 718.205 195.979 714.984 264.113L630.859 253.81C630.859 253.81 644.606 178.459 657.366 151.17C657.85 150.135 658.332 149.169 658.813 148.278L650.249 151.422C650.249 151.422 649.542 152.441 648.295 154.624C642.328 165.071 623.99 202.183 611.552 281.89C611.869 281.894 612.187 281.898 612.504 281.903C612.096 282.497 611.684 283.088 611.275 283.68C610.851 286.44 610.434 289.252 610.025 292.114C608.995 299.313 608.015 306.836 607.097 314.692C607.615 317.339 608.134 319.979 608.494 322.611C611.086 341.526 614.656 360.457 616.706 379.419C617.084 382.914 618.715 388.725 617.538 392.103C615.391 398.273 608.275 401.124 600.49 402.486C600.303 407.334 600.138 412.264 599.998 417.28L743.857 417.28Z" fill="#F7EFEC"/>
<path d="M596.097 282.584C595.886 281.857 595.545 281.092 595.225 280.495C592.336 275.091 585.148 274.099 578.862 274.234C576.91 274.276 575.044 274.427 573.421 274.589C568.014 275.128 562.495 276.375 557.645 278.777C555.226 279.974 552.924 281.509 551.193 283.543C550.773 284.037 547.931 287.271 548.279 290.057C548.28 290.063 548.281 290.069 548.282 290.074C548.289 289.999 548.295 289.923 548.302 289.848C564.218 287.208 579.955 284.115 596.097 282.584Z" fill="#B5B4B0"/>
<path d="M617.538 392.103C618.715 388.725 617.083 382.914 616.705 379.418C614.655 360.457 611.086 341.526 608.494 322.611C608.133 319.978 607.615 317.339 607.097 314.691C605.912 308.637 604.731 302.546 605.446 296.418C605.687 294.345 606.281 292.45 607.089 290.661C608.2 288.2 609.715 285.937 611.275 283.679C611.684 283.088 612.096 282.497 612.504 281.902C612.187 281.897 611.869 281.893 611.552 281.89C608.125 281.851 604.727 281.901 601.383 282.142C599.616 282.269 597.854 282.418 596.097 282.584C579.955 284.116 564.218 287.208 548.302 289.848C548.295 289.923 548.289 289.999 548.282 290.074C547.948 293.716 547.724 297.372 547.552 301.03C547.389 304.475 547.271 307.921 547.148 311.358C546.654 325.231 546.325 339.131 546.337 353.013C546.337 353.194 546.337 353.375 546.337 353.555C546.351 364.881 545.707 376.305 545.737 387.537C545.761 396.523 547.711 399.629 556.937 401.811C564.45 403.589 572.53 404.169 580.255 403.901C585.178 403.73 593.132 403.773 600.489 402.485C608.274 401.124 615.39 398.273 617.538 392.103ZM559.696 392.405C559.639 395.357 554.848 395.357 554.904 392.405C555.047 384.963 554.836 377.525 554.761 370.084C554.686 362.695 554.979 355.313 554.941 347.924C554.861 333.013 554.203 318.093 553.462 303.201C553.314 300.246 558.107 300.263 558.253 303.201C558.995 318.093 559.651 333.013 559.731 347.924C559.771 355.313 559.476 362.695 559.551 370.084C559.626 377.525 559.84 384.963 559.696 392.405ZM585.575 392.416C585.444 395.36 580.652 395.365 580.783 392.416C580.953 388.642 580.29 384.931 579.744 381.208C579.186 377.408 578.889 373.588 578.56 369.763C577.876 361.812 576.318 353.997 575.541 346.067C574.753 338.024 573.677 330.027 572.735 322C571.874 314.68 570.227 307.413 569.772 300.054C569.59 297.101 574.382 297.121 574.562 300.054C575.017 307.408 576.666 314.682 577.525 322C578.469 330.029 579.543 338.024 580.332 346.067C581.108 353.996 582.666 361.812 583.35 369.763C583.688 373.685 584.001 377.596 584.59 381.491C585.138 385.112 585.737 388.746 585.575 392.416ZM606.889 389.213C605.11 386.701 605.238 383.55 605.089 380.642C604.895 376.847 604.01 373.076 603.447 369.319C602.212 361.08 600.878 352.857 599.347 344.663C597.833 336.556 596.22 328.463 594.739 320.351C594.024 316.426 593.38 312.502 592.446 308.616C591.573 304.984 590.698 301.329 590.682 297.581C590.669 294.625 595.459 294.631 595.472 297.581C595.489 301.441 596.549 305.149 597.423 308.89C598.28 312.548 598.833 316.264 599.51 319.956C600.949 327.793 602.504 335.609 603.967 343.444C605.445 351.358 606.743 359.302 607.941 367.261C608.483 370.859 609.179 374.441 609.635 378.049C609.984 380.794 609.34 384.515 611.026 386.898C612.761 389.35 608.607 391.644 606.889 389.213Z" fill="#CBC7C5"/>
<path d="M611.026 386.897C609.34 384.516 609.983 380.794 609.635 378.049C609.179 374.441 608.483 370.859 607.941 367.261C606.743 359.302 605.445 351.358 603.967 343.444C602.503 335.609 600.949 327.793 599.51 319.956C598.833 316.264 598.28 312.548 597.423 308.89C596.549 305.149 595.489 301.441 595.472 297.581C595.459 294.631 590.669 294.625 590.681 297.581C590.697 301.329 591.573 304.984 592.446 308.616C593.38 312.501 594.024 316.426 594.739 320.351C596.22 328.463 597.833 336.556 599.347 344.663C600.878 352.857 602.212 361.08 603.447 369.319C604.01 373.076 604.895 376.847 605.089 380.642C605.238 383.55 605.11 386.701 606.889 389.213C608.607 391.643 612.761 389.35 611.026 386.897Z" fill="#B5B4B0"/>
<path d="M583.35 369.763C582.667 361.811 581.108 353.995 580.332 346.067C579.543 338.024 578.469 330.028 577.525 322C576.666 314.681 575.017 307.408 574.562 300.054C574.382 297.121 569.59 297.101 569.772 300.054C570.227 307.413 571.874 314.68 572.735 322C573.677 330.027 574.753 338.024 575.541 346.067C576.318 353.997 577.876 361.811 578.56 369.763C578.889 373.588 579.186 377.408 579.744 381.208C580.29 384.931 580.952 388.642 580.783 392.416C580.652 395.365 585.444 395.36 585.575 392.416C585.737 388.746 585.138 385.112 584.59 381.491C584.001 377.596 583.688 373.685 583.35 369.763Z" fill="#B5B4B0"/>
<path d="M559.732 347.924C559.651 333.013 558.995 318.093 558.254 303.201C558.107 300.263 553.315 300.246 553.462 303.201C554.203 318.093 554.861 333.013 554.941 347.924C554.98 355.313 554.686 362.695 554.761 370.084C554.837 377.525 555.048 384.962 554.905 392.405C554.849 395.357 559.639 395.357 559.697 392.405C559.84 384.963 559.627 377.525 559.552 370.084C559.476 362.695 559.772 355.313 559.732 347.924Z" fill="#B5B4B0"/>
<path d="M798.041 493.926C798.013 493.928 797.985 493.931 797.957 493.934C797.95 496.068 797.942 498.202 797.936 500.336C797.797 544.871 797.846 589.408 798.096 633.941C798.112 636.689 793.663 636.682 793.647 633.941C793.577 621.582 793.523 609.223 793.484 596.864C793.378 562.752 793.385 528.64 793.504 494.528C778.431 497.137 765.173 505.375 750.946 510.483C735.351 516.083 718.01 521.839 700.986 524.434C701.037 560.937 700.975 597.441 700.793 633.941C700.779 636.687 696.328 636.683 696.342 633.941C696.403 621.582 696.452 609.223 696.487 596.864C696.554 572.922 696.57 548.981 696.537 525.04C693.864 525.358 691.204 525.59 688.563 525.723C671.798 526.57 656.504 522.415 640.478 518.771C630.125 516.417 619.239 512.052 609.62 506.608C609.72 549.052 609.673 591.499 609.461 633.941C609.447 636.687 604.996 636.683 605.01 633.941C605.071 621.582 605.12 609.223 605.153 596.864C605.239 565.892 605.241 534.921 605.163 503.95C603.514 502.915 601.915 501.849 600.377 500.759C589.177 492.819 576.768 479.586 561.095 484.223C544.22 489.215 528.3 495.693 512.623 502.357C512.982 546.219 512.842 590.085 512.156 633.941C512.113 636.685 507.663 636.683 507.705 633.941C507.899 621.582 508.05 609.223 508.157 596.864C508.425 565.992 508.433 535.119 508.189 504.248C479.332 516.588 451.066 529.143 418.889 533.749C417.438 533.883 416.017 533.955 414.622 533.97C414.59 567.295 414.665 600.619 414.852 633.941C414.867 636.689 410.416 636.682 410.402 633.941C410.332 621.582 410.278 609.223 410.239 596.864C410.173 575.849 410.152 554.835 410.172 533.82C376.353 531.143 358.619 494.111 329.596 480.554C325.607 478.784 321.618 479.576 317.629 481.282C317.653 487.633 317.674 493.984 317.692 500.336C317.815 544.871 317.771 589.408 317.547 633.941C317.533 636.687 313.083 636.683 313.097 633.941C313.159 621.582 313.207 609.223 313.242 596.864C313.347 559.067 313.327 521.271 313.187 483.475C310.389 484.988 307.59 486.649 304.792 487.891C279.991 505.399 251.346 522.054 222.526 525.65C223.373 539.401 221.509 553.438 221.112 567.053C221.039 569.547 220.949 572.041 220.845 574.533C220.753 594.337 220.554 614.14 220.243 633.942C220.206 636.304 216.904 636.631 216.012 634.928C215.564 639.154 215.104 643.38 214.638 647.605H863V512.298C841.251 506.123 821.693 491.773 798.041 493.926Z" fill="#9F7A62"/>
<path d="M221.612 488.053C221.672 498.539 224.687 510.905 223.166 521.182C222.833 521.302 222.51 521.441 222.193 521.593C222.333 522.942 222.443 524.295 222.526 525.65C251.346 522.054 279.991 505.399 304.793 487.89C307.591 486.649 310.389 484.988 313.187 483.474C313.328 521.27 313.348 559.066 313.242 596.863C313.207 609.223 313.159 621.582 313.097 633.941C313.083 636.683 317.533 636.687 317.547 633.941C317.772 589.407 317.815 544.871 317.692 500.335C317.675 493.984 317.654 487.633 317.629 481.281C321.618 479.576 325.607 478.784 329.596 480.553C358.619 494.11 376.353 531.143 410.172 533.82C410.152 554.834 410.173 575.848 410.239 596.863C410.278 609.223 410.332 621.582 410.402 633.941C410.417 636.681 414.867 636.688 414.852 633.941C414.665 600.619 414.59 567.294 414.622 533.97C416.017 533.955 417.438 533.882 418.889 533.748C451.066 529.143 479.333 516.587 508.189 504.248C508.433 535.118 508.425 565.992 508.157 596.863C508.05 609.223 507.9 621.582 507.705 633.941C507.663 636.683 512.113 636.685 512.156 633.941C512.842 590.084 512.982 546.218 512.623 502.356C528.301 495.692 544.22 489.215 561.095 484.223C576.769 479.586 589.177 492.819 600.377 500.759C601.915 501.849 603.514 502.914 605.163 503.95C605.241 534.921 605.239 565.892 605.153 596.863C605.12 609.223 605.071 621.582 605.01 633.941C604.996 636.683 609.447 636.687 609.461 633.941C609.673 591.498 609.721 549.052 609.621 506.607C619.239 512.052 630.125 516.417 640.478 518.771C656.504 522.415 671.799 526.57 688.563 525.723C691.204 525.589 693.865 525.357 696.538 525.039C696.57 548.98 696.554 572.921 696.488 596.863C696.453 609.223 696.404 621.582 696.342 633.941C696.328 636.683 700.779 636.687 700.793 633.941C700.975 597.44 701.037 560.937 700.987 524.434C718.01 521.839 735.351 516.082 750.946 510.483C765.173 505.375 778.431 497.136 793.504 494.527C793.385 528.639 793.378 562.751 793.484 596.863C793.523 609.223 793.577 621.582 793.647 633.941C793.663 636.681 798.112 636.688 798.097 633.941C797.847 589.407 797.798 544.871 797.936 500.335C797.942 498.201 797.95 496.067 797.957 493.933C797.985 493.931 798.013 493.928 798.041 493.925C821.693 491.772 841.251 506.122 863 512.297V450.985H221.896C221.723 463.335 221.543 475.682 221.612 488.053Z" fill="#886153"/>
<path d="M230.822 439.75H222.042C221.999 443.495 221.947 447.24 221.895 450.985H863V439.75H248.004C242.204 442.113 236.318 441.881 230.822 439.75Z" fill="#3E201D"/>
<path d="M781.52 417.28H743.857H599.997H486.779H444.119H436.39H410.202H341.287H276.6C269.058 424.768 261.128 431.854 252.206 437.56C250.815 438.45 249.412 439.176 248.004 439.75H863V434.63V434.622V417.279L781.52 417.28Z" fill="#EECBA8"/>
<path d="M222.098 434.553C222.082 436.286 222.062 438.018 222.042 439.75H230.822C227.766 438.564 224.83 436.793 222.098 434.553Z" fill="#EECBA8"/>
<path d="M220.243 633.941C220.553 614.14 220.752 594.336 220.844 574.532C219.997 594.688 218.143 614.814 216.012 634.927C216.904 636.63 220.205 636.303 220.243 633.941Z" fill="#886153"/>
<path d="M220.845 574.533C220.949 572.04 221.039 569.547 221.111 567.053C221.508 553.437 223.373 539.4 222.526 525.65C222.443 524.295 222.333 522.942 222.193 521.594C222.51 521.441 222.833 521.302 223.165 521.182C224.686 510.905 221.671 498.539 221.612 488.053C221.542 475.683 221.723 463.335 221.895 450.986C221.947 447.24 221.999 443.495 222.042 439.75C222.062 438.018 222.082 436.286 222.098 434.554C224.83 436.793 227.766 438.564 230.822 439.75C236.318 441.882 242.205 442.114 248.004 439.75C249.412 439.176 250.816 438.45 252.207 437.56C261.128 431.854 269.058 424.768 276.6 417.28C282.71 411.213 288.566 404.882 294.485 398.807C303.38 389.677 318.86 370.863 327.659 359.05C331.129 359.244 334.646 359.318 338.154 359.192C339.666 359.137 341.176 359.046 342.68 358.91C349.9 358.26 356.971 356.599 363.377 353.206C367.114 351.228 371.1 349.623 374.823 347.599C376.646 346.608 394.235 335.25 387.104 332.677C390.327 329.247 400.487 318.679 391.324 317.159C392.04 313.834 396.687 306.444 390.083 306.241C386.268 306.124 382.766 308.166 379.766 310.182C376.283 312.521 373.872 316.267 370.594 318.883C367.059 321.699 362.871 323.537 358.279 324.255C355.399 324.705 349.393 325.708 346.945 324.026C349.819 319.186 358.542 317.715 363.405 315.289C364.585 314.698 367.731 313.456 368.085 312.003C369.391 306.604 351.147 308.339 348.57 308.795C348.25 308.852 347.93 308.912 347.61 308.973C345.255 309.425 342.9 310 340.564 310.679C333.853 312.631 327.295 315.446 321.318 318.69C315.828 321.668 309.646 325.771 307.66 331.792L307.6 331.985C305.032 334.163 302.95 335.932 302.188 336.451C288.462 345.778 275.164 355.6 261.687 365.195C260.46 361.613 259.179 358.051 257.8 354.544C261.336 352.237 264.803 349.858 268.161 347.397C268.847 346.897 269.496 346.353 270.162 345.834C266.201 335.985 261.83 326.281 257.061 316.781C247.078 296.896 241.223 274.547 229.511 255.556C225.383 248.866 219.588 243.446 213.597 238.156C204.862 230.441 195.044 225.942 184.084 221.69C183.544 221.481 182.71 221.066 181.721 220.577C180.082 219.766 174.962 217.71 170.43 216.185C168.213 215.003 165.985 213.906 163.558 213.001C161.825 212.355 160.103 211.757 158.382 211.205C156.978 204.495 156.041 200.011 156.041 200.011L154.703 192.745C154.902 192.777 155.1 192.809 155.299 192.839C158.259 193.301 161.25 193.606 164.242 193.792C166.228 193.917 168.756 194.28 170.639 193.532C174.495 191.997 175.645 186.58 176.34 183.152C176.47 182.504 176.606 181.856 176.745 181.208C178.554 181.316 180.375 181.294 182.169 181.208C183.278 177.365 183.229 172.483 182.364 168.616C182.214 168.579 182.001 168.523 181.748 168.453C182.019 168.401 182.311 168.357 182.63 168.327C185.459 168.051 189.173 168.21 191.733 166.842C194.41 165.411 192.544 161.301 191.984 159.078C190.279 152.308 188.77 145.501 187.101 138.732C186.061 134.504 186.081 130.111 185.675 125.816C185.255 121.344 184.558 116.897 183.601 112.502C182.92 109.37 182.107 106.262 181.161 103.19C183.824 101.733 186.153 99.7165 187.778 97.2322C195.833 84.9416 190.681 67.2221 181.175 56.9422C174.757 50.0001 163.685 43.5466 153.56 46.317C144.621 48.7645 137.094 55.7 127.225 52.419C122.109 50.7163 117.043 48.0483 111.427 48.5871C106.821 49.0275 100.467 51.1501 97.0316 54.1934C95.2363 55.7852 93.806 57.7875 92.6454 59.9537C91.2063 62.6436 90.1829 65.59 89.3968 68.322C88.2401 72.3448 88.0211 76.57 84.1535 79.1363C80.8349 81.3376 76.5381 81.5285 75.8892 86.107C75.467 89.0936 77.5989 90.677 78.5597 93.1029C78.2406 92.2993 73.6732 95.9889 73.3102 96.6049C72.4549 98.0479 72.2799 100.063 71.8427 101.658C70.4655 106.679 70.1071 111.577 70.5985 116.763C71.1832 122.935 72.899 128.31 76.1747 133.662C78.6617 137.723 81.6821 141.602 84.4347 145.522C86.4818 148.442 89.9998 152.116 89.7094 155.891C89.3808 160.172 86.3875 161.802 83.0372 163.731C81.164 164.81 80.9587 164.288 81.0635 166.402C81.2576 170.385 87.3761 175.641 91.2903 176.147C89.5581 179.866 96.4126 182.486 99.3073 183.027C99.7173 183.104 100.133 183.169 100.552 183.226L95.4977 208.435C91.8066 209.177 88.182 209.933 84.5811 211.09C74.6045 214.301 65.4186 219.363 56.3958 224.571C51.3443 227.485 46.3344 230.465 42.0907 234.27C34.0982 239.95 26.4836 249.031 23.8541 255.331C18.6982 267.681 12.5564 280.054 7.85073 292.695C4.96785 300.441 2.62341 308.509 0 316.392V432.053C7.30503 437.008 15.6384 441.126 21.1275 444.601C23.5637 446.143 27.2345 449.13 30.8557 451.21C30.8389 466.517 30.6704 481.829 30.6704 497.117C30.6704 504.795 27.3178 514.098 31.7939 521.137C31.5271 523.559 31.1775 525.918 30.6337 528.156C28.8342 535.563 27.7691 543.344 27.2208 550.931C26.2849 563.859 26.1183 576.752 26.1183 589.734C26.1183 609.041 26.119 628.315 26.1183 647.605H163.078H214.638C215.104 643.38 215.564 639.154 216.012 634.928C218.144 614.814 219.997 594.689 220.845 574.533Z" fill="#4F3025"/>
</svg>
